{"title":"Dinner For Schmucks 2010 PPVRip IFLIX","uid":5990941,"size":1402627999,"categoryP":"video","categoryS":"movies","magnet":"?xt=urn:btih:6cbe181b2df1c3c3a7024e9d8ac3117ba0af5f97&amp;dn=Dinner+For+Schmucks+2010+PPVRip+IFLIX&amp;tr=udp%3A%2F%2Ftracker.openbittorrent.com%3A80&amp;tr=udp%3A%2F%2Fopen.demonii.com%3A1337&amp;tr=udp%3A%2F%2Ftracker.coppersurfer.tk%3A6969&amp;tr=udp%3A%2F%2Fexodus.desync.com%3A6969","seeders":1,"leechers":0,"uploader":"IwannaFan2","files":7,"time":1290888720,"description":"Filename:\nDinner For Schmucks 2010 PPVRip IFLIX\n &lt;a href=&quot;\nhttp://www.imdb.com/title/tt0427152/&quot; rel=&quot;nofollow&quot; target=&quot;_NEW&quot;&gt;\nhttp://www.imdb.com/title/tt0427152/&lt;/a&gt;\n\nVideo\nID                               : 0\nFormat                           : MPEG-4 Visual\nFormat settings, BVOP            : Yes\nFormat settings, QPel            : No\nFormat settings, GMC             : No warppoints\nFormat settings, Matrix          : Default (H.263)\nCodec ID                         : DX50\nCodec ID/Hint                    : DivX 5\nDuration                         : 1h 53mn\nBit rate                         : 1 500 Kbps\nWidth                            : 720 pixels\nHeight                           : 480 pixels\nDisplay aspect ratio             : 4:3\nFrame rate                       : 29.970 fps\nStandard                         : NTSC\nColor space                      : YUV\nChroma subsampling               : 4:2:0\nBit depth                        : 8 bits\nScan type                        : Progressive\nBits/(Pixel*Frame)               : 0.145\nStream size                      : 1.19 GiB (91%)\nWriting library                  : DivX 2151n\n\nAudio\nID                               : 1\nFormat                           : MPEG Audio\nFormat version                   : Version 1\nFormat profile                   : Layer 3\nCodec ID                         : 55\nCodec ID/Hint                    : MP3\nDuration                         : 1h 53mn\nBit rate mode                    : Constant\nBit rate                         : 128 Kbps\nChannel(s)                       : 2 channels\nSampling rate                    : 48.0 KHz\nStream size                      : 104 MiB (8%)\nAlignment                        : Aligned on interleaves\nInterleave, duration             : 33 ms (1.00 video frame)\n\nRelease notes...\n\nAnother quality release from IFLIX\nMore to come very soon!\n\nVideo source: Ours\nAudio source: Ours\n\nGreetings to all other groups out there. You all do awesome work and we greatly appreciate it.\nIFLIX :-)","torrent":{"xt":"urn:btih:6cbe181b2df1c3c3a7024e9d8ac3117ba0af5f97","amp;dn":"Dinner+For+Schmucks+2010+PPVRip+IFLIX","amp;tr":["udp%3A%2F%2Ftracker.openbittorrent.com%3A80","udp%3A%2F%2Fopen.demonii.com%3A1337","udp%3A%2F%2Ftracker.coppersurfer.tk%3A6969","udp%3A%2F%2Fexodus.desync.com%3A6969"],"infoHash":"6cbe181b2df1c3c3a7024e9d8ac3117ba0af5f97","infoHashBuffer":{"type":"Buffer","data":[108,190,24,27,45,241,195,195,167,2,78,157,138,195,17,123,160,175,95,151]},"announce":[],"urlList":[]}}